<svg xmlns="http://www.w3.org/2000/svg" viewBox="0 0 362.07 366.02"><defs><style>.cls-1{fill:#fff;}</style></defs><g id="Layer_2" data-name="Layer 2"><g id="Layer_1-2" data-name="Layer 1"><path class="cls-1" d="M180.76,0C280.88,0,362.05,82,362.07,183.13c0,100.62-81.51,183.32-181.13,182.89C79.75,365.59,1.53,283.7,0,185.9-1.59,81.86,82-.45,180.76,0M4.62,182.82c.2,98.79,79,178.63,176.42,178.65,97.54,0,176.62-80.3,176.39-179.18C357.2,83.8,277.65,4.13,179.7,4.3,83.44,4.46,4.43,85,4.62,182.82"></path><path class="cls-1" d="M66.14,91.17a1.49,1.49,0,0,0,1.4-1.39c0-.93-.93-1.86-1.4-1.4l-7.9.93v1.4c3-.95,5.41-.06,7.9.46"></path><path class="cls-1" d="M62.89,95.82a1.49,1.49,0,0,0,1.4-1.39,1.24,1.24,0,0,0-1.4-1.4L55,94.43v1.39c3-1.18,5.44-.4,7.9,0"></path><path class="cls-1" d="M60.1,100.47a1.48,1.48,0,0,0,1.39-1.39c0-.93-.93-1.4-1.86-1.4l-7.9,1.86.47.93c3.13-1.2,5.45-.4,7.9,0"></path><path class="cls-1" d="M56.85,105.59a1.23,1.23,0,0,0,1.39-1.39c-.46-.93-.93-1.4-1.86-1.4l-7.9,2.32.46.94c2.78-.88,5.59-.56,7.91-.47"></path><path class="cls-1" d="M54.06,110.7c.46,0,.93-.93.93-1.86,0-.46-.93-.93-1.86-.93l-7.44,3.26.46.93a15.46,15.46,0,0,1,7.91-1.4"></path><path class="cls-1" d="M50.34,116.75c.46,0,.93-.93.93-1.39,0-.93-.93-1.4-1.86-1.4L42,117.22l.46.92a15.45,15.45,0,0,1,7.91-1.39"></path><path class="cls-1" d="M48,122.33c.93,0,1.4-.93.93-1.86,0-.46-.93-.93-1.86-.93l-7.44,2.79.47,1.39a15.42,15.42,0,0,1,7.9-1.39"></path><path class="cls-1" d="M46.15,127.91c.93-.47,1.4-.93.93-1.86,0-.93-.93-1.39-1.86-.93l-7.44,2.79.47.93a16.91,16.91,0,0,1,7.9-.93"></path><path class="cls-1" d="M44.29,133a2.06,2.06,0,0,0,.47-2.33c0-.47-.93-.93-1.86-.93l-7,3.72.47.93a14.93,14.93,0,0,1,7.9-1.39"></path><path class="cls-1" d="M42,139.07c.93,0,1.39-.93.93-1.86,0-.46-.93-.93-1.86-.46l-7,3.72.46.92A30,30,0,0,1,42,139.07"></path><path class="cls-1" d="M40.11,145.58c.93,0,1.39-.93.93-1.86a2.44,2.44,0,0,0-1.86-.93l-7,4.19.46.92a29.82,29.82,0,0,1,7.44-2.32"></path><path class="cls-1" d="M70.33,86.52a1.48,1.48,0,0,0,1.39-1.39c0-.93-.93-1.4-1.86-1.4L62,85.13v.93c3.32-.91,5.84,0,8.37.46"></path><path class="cls-1" d="M74.05,81.87a1.48,1.48,0,0,0,1.39-1.39c-.46-.93-.93-1.4-1.86-1.4l-7.9,1.4v.93a16,16,0,0,1,8.37.46"></path><path class="cls-1" d="M78.23,77.69c.93,0,1.4-.93,1.4-1.86a1.49,1.49,0,0,0-1.4-1.4l-7.9,1.4v.93c3-.67,5.41.3,7.9.93"></path><path class="cls-1" d="M81.49,72.57c.93-.46,1.39-.93,1.39-1.86S82,69.32,81,69.32l-7.44,2.32V73c2.94-1.49,5.41-.76,7.91-.47"></path><path class="cls-1" d="M71.26,66.06c0-.93-.93-1.39-1.86-.93-.93,0-1.4.93-.93,1.86l2.79,7.44.93-.46c-1.14-2.75-.91-5.37-.93-7.91"></path><path class="cls-1" d="M67.07,69.32c0-.47-.93-.93-1.86-.93-.46,0-.93.93-.93,1.86l2.79,7.44H68a20.2,20.2,0,0,1-.93-8.37"></path><path class="cls-1" d="M62.89,73.5c0-.93-.93-1.39-1.86-.93-.93,0-1.4.93-.93,1.86l3.72,8.84h.93c-1.51-3.27-1.61-6.7-1.86-9.77"></path><path class="cls-1" d="M59.17,77.69a2.52,2.52,0,0,0-1.86-1.4c-.93.47-1.39.93-1.39,1.86l3.71,9.3.93-.46c-1.89-3.24-1.47-6.49-1.39-9.3"></path><path class="cls-1" d="M55.45,81.41c0-.93-.93-.93-1.86-.93a2.42,2.42,0,0,0-.93,1.86l4.19,8.83h.93c-1.47-3.36-2.54-6.56-2.33-9.76"></path><path class="cls-1" d="M51.27,86.52a2.44,2.44,0,0,0-1.86-.93,1.7,1.7,0,0,0-.93,2.33l4.18,8.84.93-.47c-1.45-3.4-2.55-6.35-2.32-9.77"></path><path class="cls-1" d="M47.55,92.1c0-.93-.93-.93-1.86-.93A3.52,3.52,0,0,0,44.76,93l4.18,8.84.93-.47c-1.51-3.21-2.53-6.21-2.32-9.3"></path><path class="cls-1" d="M44.29,96.75c0-.46-.93-.93-1.86-.46-.46,0-.93.93-.46,1.86l4.65,8.37.93-.46a29.8,29.8,0,0,1-3.26-9.31"></path><path class="cls-1" d="M41.81,101.85a1.86,1.86,0,0,0-1.86-.93,1.7,1.7,0,0,0-.93,2.33l4.65,8.37,1.39-.47c-1.93-3.22-3.35-6.08-3.25-9.3"></path><path class="cls-1" d="M38.25,107c-.47-.46-1.39-.93-1.86-.46-.93.46-.93,1.39-.46,2.32l5.57,7.91.93-.46c-2-3.12-3.64-6-4.18-9.31"></path><path class="cls-1" d="M35.92,112.56c-.46-.46-1.39-.93-1.86-.46-.92.46-1.39,1.4-.92,1.86l5.57,8.37.93-.46a26.56,26.56,0,0,1-3.72-9.31"></path><path class="cls-1" d="M33.6,116.75c-.46-.46-1.4-.93-1.86-.46-.93.46-.93,1.39-.46,2.32l6,7.44.93-.47c-2.23-2.91-4.06-5.65-4.65-8.83"></path><path class="cls-1" d="M31.28,121.4a1.15,1.15,0,0,0-1.86-.46A1.15,1.15,0,0,0,29,122.8l6.51,7.43.93-.46c-2.53-2.49-3.9-5.78-5.11-8.37"></path><path class="cls-1" d="M29.88,126.05a1.4,1.4,0,0,0-1.86,0,1.15,1.15,0,0,0-.46,1.86l6,7.44.93-.47c-2.23-2.94-4-5.59-4.65-8.83"></path><path class="cls-1" d="M27.56,132.56c-.47-.93-1.4-.93-2.33-.46a2.09,2.09,0,0,0,0,2.32l6.51,7,.93-.92c-2.59-2.32-3.91-5.45-5.11-7.91"></path><path class="cls-1" d="M25.7,138.14a1.4,1.4,0,0,0-1.86,0c-.47.46-.93,1.4-.47,1.86l7,7.44.93-.93a28.05,28.05,0,0,1-5.58-8.37"></path><path class="cls-1" d="M24.3,145.58c-.93-.46-1.86-.93-2.32,0a1.4,1.4,0,0,0,0,1.86l7,7,.93-.93c-2.7-2.56-4.85-4.8-5.58-7.91"></path><path class="cls-1" d="M23.37,153.49a1.52,1.52,0,0,0-2.32,0,1.4,1.4,0,0,0,0,1.86l7,7,.93-.93c-2.77-2.26-4.27-5.44-5.58-7.9"></path><path class="cls-1" d="M22,162.32a2.1,2.1,0,0,0-2.33,0,1.43,1.43,0,0,0,0,1.86l7,7,.93-.47c-2.67-2.74-4.84-5.14-5.58-8.37"></path><path class="cls-1" d="M21.05,171.16c-.47-.47-1.4-.93-1.86,0-.47.46-.93,1.39,0,1.86l7,6.51.93-.47c-2.56-2.45-4.76-4.85-6-7.9"></path><path class="cls-1" d="M21.05,180c-.93-.93-1.86-.93-2.33-.46a2.09,2.09,0,0,0,0,2.32l7.44,6.05.93-.47c-2.93-2-4.58-5-6-7.44"></path><path class="cls-1" d="M20.58,187.9a2,2,0,0,0-2.32,0c-.47.93-.47,1.86.46,2.32l8.37,5.12.47-.93c-3-1.63-5-4.25-7-6.51"></path><path class="cls-1" d="M21.05,196.27a2.05,2.05,0,0,0-2.33.46,2.06,2.06,0,0,0,.47,2.33L28,203.24l.46-.93c-3.33-1.7-5.9-3.08-7.43-6"></path><path class="cls-1" d="M22,204.64a2.05,2.05,0,0,0-2.33.46,2.06,2.06,0,0,0,.47,2.33L29,211.61l.47-.93c-3.34-1.7-5.91-3.08-7.44-6"></path><path class="cls-1" d="M22.91,213a2.05,2.05,0,0,0-2.33.46c0,.93,0,1.86.93,1.86l9.3,3.26.47-.93c-3.22-1.2-6.27-2.51-8.37-4.65"></path><path class="cls-1" d="M23.84,219.52c-.93-.47-1.86,0-1.86.93-.47.46,0,1.39.46,1.86l9.3,3.26.47-.94c-3.19-1.41-6.09-2.72-8.37-5.11"></path><path class="cls-1" d="M25.23,225.56c-.93-.46-1.39,0-1.86.94-.46.46,0,1.39.47,1.85l9.29,3.26.47-.93c-3.18-1.42-6.09-2.73-8.37-5.12"></path><path class="cls-1" d="M26.63,230.68a2,2,0,0,0-2.33.47,3.46,3.46,0,0,0,.47,2.32l10.69,5.58.93-.93c-3.63-2.34-7.56-4.33-9.76-7.44"></path><path class="cls-1" d="M38.71,152.56c.93-.47.93-1.4.93-2.33a2,2,0,0,0-2.32-.46L29,154.88l.47.93c3-2.2,6.41-2.67,9.29-3.25"></path><path class="cls-1" d="M37.32,159.53c.46-.46.93-1.39.46-1.86a1.14,1.14,0,0,0-1.85-.46l-7.91,6,.47.93c2.91-2.22,5.65-4.05,8.83-4.65"></path><path class="cls-1" d="M36.85,167.44a1.36,1.36,0,0,0-1.39-2.33l-7.9,6,.46.93c2.92-2.23,5.65-4.06,8.83-4.65"></path><path class="cls-1" d="M35.92,175.34c.93-.46.93-1.39.47-2.32a2.07,2.07,0,0,0-2.33,0l-7,6.51.46.93c2.49-2.54,5.78-3.91,8.37-5.12"></path><path class="cls-1" d="M35.46,183.25a1.36,1.36,0,0,0-1.4-2.33l-7.43,7,.93.93a44.12,44.12,0,0,1,7.9-5.58"></path><path class="cls-1" d="M35.92,190.22c.93-.46.93-1.39,0-2.32a1.4,1.4,0,0,0-1.86,0l-6.51,7.44.94.93c2-3,5.1-4.64,7.43-6.05"></path><path class="cls-1" d="M36.39,196.73a2.09,2.09,0,0,0,0-2.32,1.4,1.4,0,0,0-1.86,0L28,201.85l.47.93c2.57-2.92,4.67-5.23,7.9-6.05"></path><path class="cls-1" d="M36.85,204.17a1.4,1.4,0,0,0,0-1.86c-.46-.93-1.39-.46-2.32,0L29,210.22l.93.46c1.89-2.78,4.58-4.66,7-6.51"></path><path class="cls-1" d="M38.25,210.68a2.09,2.09,0,0,0,0-2.32c-.93-.47-1.86-.47-2.32.46l-5.12,8.37.93.47c1.61-3,4.36-5.12,6.51-7"></path><path class="cls-1" d="M42,225.56c.46-.93.46-1.86-.47-2.32a1.15,1.15,0,0,0-1.86.46l-5.11,8.38.93.46c1.89-3.11,3.56-5.54,6.51-7"></path><path class="cls-1" d="M45.22,232.54a2.05,2.05,0,0,0-.46-2.33,2.06,2.06,0,0,0-2.33.47l-4.65,9.76.93.47c1.87-3.58,3.34-6.63,6.51-8.37"></path><path class="cls-1" d="M40.11,217.19a2,2,0,0,0-.47-2.32c-.93-.47-1.86,0-1.86.46l-5.11,9.77.93.46c1.49-3.47,4.24-6.06,6.51-8.37"></path><path class="cls-1" d="M77.3,66.53C49.41,94,31.74,127,26.63,162.79c-5.12,36.27,2.79,73,22.78,106,.46.93,1.39.93,2.32.47a1.15,1.15,0,0,0,.47-1.86c-19.53-32.56-27.43-68.36-22.32-104.17C35,128.37,51.73,95.36,79.16,68.85c.93-.46.93-1.39,0-2.32a1.4,1.4,0,0,0-1.86,0"></path><path class="cls-1" d="M295.81,91.17a1.48,1.48,0,0,1-1.39-1.39c0-.93.46-1.86,1.39-1.4l7.91.93v1.4c-3.05-.95-5.41-.06-7.91.46"></path><path class="cls-1" d="M299.07,95.82a1.49,1.49,0,0,1-1.4-1.39,1.24,1.24,0,0,1,1.4-1.4l7.9,1.4v1.39c-3-1.18-5.44-.4-7.9,0"></path><path class="cls-1" d="M301.86,100.47a1.49,1.49,0,0,1-1.4-1.39c0-.93.93-1.4,1.86-1.4l7.91,1.86-.47.93c-3.13-1.2-5.45-.4-7.9,0"></path><path class="cls-1" d="M305.11,105.59a1.23,1.23,0,0,1-1.39-1.39c.46-.93.92-1.4,1.86-1.4l7.9,2.32-.47.94c-2.78-.88-5.59-.56-7.9-.47"></path><path class="cls-1" d="M307.9,110.7a1.38,1.38,0,0,1-.93-1.86c0-.46.93-.93,1.86-.93l7.44,3.26-.46.93a15.48,15.48,0,0,0-7.91-1.4"></path><path class="cls-1" d="M311.62,116.75c-.47,0-1.39-.93-.93-1.39,0-.93.93-1.4,1.86-1.4l7.44,3.26-.47.92a15.42,15.42,0,0,0-7.9-1.39"></path><path class="cls-1" d="M313.94,122.33c-.93,0-1.39-.93-.93-1.86,0-.46.93-.93,1.87-.93l7.43,2.79-.46,1.39a15.44,15.44,0,0,0-7.91-1.39"></path><path class="cls-1" d="M315.81,127.91c-.93-.47-1.4-.93-.93-1.86,0-.93.93-1.39,1.85-.93l7.45,2.79-.47.93a16.93,16.93,0,0,0-7.9-.93"></path><path class="cls-1" d="M317.66,133a2.05,2.05,0,0,1-.46-2.33c0-.47.93-.93,1.86-.93l7,3.72-.46.93a15,15,0,0,0-7.91-1.39"></path><path class="cls-1" d="M319.52,139.07c-.46,0-.93-.93-.46-1.86,0-.46.93-.93,1.86-.46l7,3.72-.46.92a24.89,24.89,0,0,0-7.91-2.32"></path><path class="cls-1" d="M322.18,146.08a1.74,1.74,0,0,1-1.26-2.36,2.42,2.42,0,0,1,1.86-.93l7,4.19-.46.93c-2.43-1.3-4.83-1.3-7.11-1.83"></path><path class="cls-1" d="M291.63,86.52a1.48,1.48,0,0,1-1.4-1.39c0-.93.93-1.4,1.86-1.4l7.91,1.4v.93c-3.32-.91-5.85,0-8.37.46"></path><path class="cls-1" d="M287.91,81.87a1.48,1.48,0,0,1-1.39-1.39c0-.93.93-1.4,1.85-1.4l7.91,1.4v.93c-3.32-.91-5.85,0-8.37.46"></path><path class="cls-1" d="M283.72,77.69c-.93,0-1.85-.93-1.39-1.86a1.48,1.48,0,0,1,1.39-1.4l7.91,1.4v.93c-3-.67-5.41.3-7.91.93"></path><path class="cls-1" d="M280.47,72.57c-.93-.46-1.4-.93-1.4-1.86s.93-1.39,1.87-1.39l7.43,2.32V73c-2.94-1.49-5.41-.76-7.9-.47"></path><path class="cls-1" d="M288.11,67c-.22-.91.57-1.58,1.58-1.35.91-.22,1.58.57,1.35,1.59l-.94,7.88-1-.23c.44-2.94-.4-5.42-1-7.89"></path><path class="cls-1" d="M294.88,69.32c0-.47.93-.93,1.86-.93.47,0,.93.93.93,1.86l-2.79,7.44H294a19.87,19.87,0,0,0,.93-8.37"></path><path class="cls-1" d="M299.07,73.5c0-.93.93-1.39,1.85-.93.94,0,.94.93.94,1.86l-3.72,8.84h-.93c1.53-3.27,1.63-6.94,1.86-9.77"></path><path class="cls-1" d="M302.79,77.69c.46-.93.93-1.4,1.85-1.4.94.47,1.4.93,1.4,1.86l-3.72,9.3-.93-.46c1.88-3.32,1.47-6.51,1.4-9.3"></path><path class="cls-1" d="M306.51,81.41c0-.93.93-.93,1.86-.93a2.42,2.42,0,0,1,.92,1.86l-4.18,8.83h-.93c1.47-3.36,2.54-6.56,2.33-9.76"></path><path class="cls-1" d="M310.69,86.52a2.44,2.44,0,0,1,1.86-.93,1.71,1.71,0,0,1,.93,2.33c-.47.46-.93.93-1.39.93l-2.8,7.91-.92-.47,2.79-7.91c-.47-.46-.94-.93-.47-1.86"></path><path class="cls-1" d="M314.41,92.1c0-.93.93-.93,1.86-.93A3.6,3.6,0,0,1,317.2,93L313,101.87l-1.39-.47c1.73-3.22,2.94-6.15,2.79-9.3"></path><path class="cls-1" d="M317.66,96.75c0-.46.93-.93,1.86-.46.47,0,.93.93.47,1.86l-4.65,8.37-.93-.46a29.77,29.77,0,0,0,3.25-9.31"></path><path class="cls-1" d="M320.92,102.8a1.85,1.85,0,0,1,1.86-.93,1.7,1.7,0,0,1,.93,2.32l-4.65,8.37-1.4-.46c1.94-3.23,3.35-6.08,3.26-9.3"></path><path class="cls-1" d="M323.71,107c.47-.46,1.39-.93,1.85-.46.94.46.94,1.39.47,2.32l-5.58,7.91-.93-.46c2-3.12,3.64-6,4.19-9.31"></path><path class="cls-1" d="M326,112.56c.47-.46,1.4-.93,1.86-.46a1.86,1.86,0,0,1,.93,1.86l-5.58,8.37-.93-.46a26.37,26.37,0,0,0,3.72-9.31"></path><path class="cls-1" d="M328.36,116.75c.46-.46,1.39-.93,1.85-.46.94.46.94,1.39.47,2.32l-6,7.44-.93-.47c2.22-2.91,4.05-5.65,4.65-8.83"></path><path class="cls-1" d="M330.68,121.4a1.35,1.35,0,1,1,2.32,1.4l-6.5,7.43-.93-.46c2.53-2.49,3.9-5.78,5.11-8.37"></path><path class="cls-1" d="M332.08,126.05a1.39,1.39,0,0,1,1.85,0,1.15,1.15,0,0,1,.47,1.86l-6,7.44-.93-.47c2.23-2.94,4-5.59,4.65-8.83"></path><path class="cls-1" d="M334.4,132.56c.47-.93,1.4-.93,2.33-.46a2.09,2.09,0,0,1,0,2.32l-6.52,7-.92-.92c2.58-2.32,3.91-5.45,5.11-7.91"></path><path class="cls-1" d="M336.26,138.14a1.4,1.4,0,0,1,1.86,0c.46.46.93,1.4.46,1.86l-7,7.44-.93-.93a28.05,28.05,0,0,0,5.58-8.37"></path><path class="cls-1" d="M337.66,145.58a1.53,1.53,0,0,1,2.32,0,1.4,1.4,0,0,1,0,1.86l-7,7-.93-.93c2.7-2.56,4.85-4.8,5.58-7.91"></path><path class="cls-1" d="M338.58,153.49a1.54,1.54,0,0,1,2.33,0,1.43,1.43,0,0,1,0,1.86l-7,7-.93-.93c2.78-2.26,4.27-5.44,5.58-7.9"></path><path class="cls-1" d="M339.9,160a1.54,1.54,0,0,1,2.33,0,1.43,1.43,0,0,1,0,1.86l-7,7-.93-.93c2.78-2.26,4.27-5.44,5.58-7.91"></path><path class="cls-1" d="M340.23,167.05a1.54,1.54,0,0,1,2.33,0,1.43,1.43,0,0,1,0,1.86l-7,7-.93-.93c2.77-2.26,4.27-5.44,5.58-7.91"></path><path class="cls-1" d="M341.62,176.31a1.54,1.54,0,0,1,2.33,0,1.4,1.4,0,0,1,0,1.86l-7,7-.92-.93c2.77-2.25,4.26-5.44,5.57-7.9"></path><path class="cls-1" d="M341.37,187.9a2.07,2.07,0,0,1,2.33,0,2,2,0,0,1-.47,2.32l-8.37,5.12-.92-.93c3.16-1.58,5.37-4.25,7.43-6.51"></path><path class="cls-1" d="M340.91,196.27a1.68,1.68,0,0,1,1.86,2.79l-8.84,4.18-.46-.93c3.34-1.7,5.91-3.08,7.44-6"></path><path class="cls-1" d="M340,204.64a2,2,0,0,1,2.32.46,3.54,3.54,0,0,1-.46,2.33L333,211.61l-.93-.93c3.56-1.72,6.3-3.08,7.9-6"></path><path class="cls-1" d="M339.05,213a2,2,0,0,1,2.32.46c0,.93,0,1.86-.92,1.86l-9.3,3.26-.47-.93c3.22-1.2,6.27-2.51,8.37-4.65"></path><path class="cls-1" d="M338.12,219.52c.93-.47,1.86,0,1.86.93.46.46,0,1.39-.47,1.86l-9.3,3.26-.46-.94c3.18-1.41,6.09-2.72,8.37-5.11"></path><path class="cls-1" d="M336.73,225.56c.46-.46,1.39,0,1.85.94.47.46,0,1.39-.46,1.85l-9.3,3.26-.46-.93c3.18-1.42,6.09-2.73,8.37-5.12"></path><path class="cls-1" d="M335.33,230.68c.93-.47,1.86,0,1.86.47a2.09,2.09,0,0,1,0,2.32l-10.69,5.58-.94-.93c3.63-2.34,7.57-4.33,9.77-7.44"></path><path class="cls-1" d="M323.24,152.56c-.93-.47-.93-1.4-.93-2.33a2.05,2.05,0,0,1,2.33-.46l8.37,5.11-.47.93c-2.93-2.14-6.38-2.66-9.3-3.25"></path><path class="cls-1" d="M324.64,159.53c-.47-.46-.93-1.39-.47-1.86a1.15,1.15,0,0,1,1.86-.46l7.91,6-.47.93c-2.91-2.22-5.65-4.05-8.83-4.65"></path><path class="cls-1" d="M325.1,167.44a1.36,1.36,0,0,1,1.4-2.33l7.9,6-.47.93c-2.7-2.3-6.11-3.55-8.83-4.65"></path><path class="cls-1" d="M326,183.25a1.43,1.43,0,0,1,0-1.86,1.15,1.15,0,0,1,1.86-.47l7.44,7-.93.93a28.05,28.05,0,0,0-8.37-5.58"></path><path class="cls-1" d="M326,175.36a1.43,1.43,0,0,1,0-1.86,1.15,1.15,0,0,1,1.86-.47l7.44,7-.93.93a28.05,28.05,0,0,0-8.37-5.58"></path><path class="cls-1" d="M326,190.22c-.93-.46-.93-1.39,0-2.32a1.4,1.4,0,0,1,1.86,0l6.51,7.44-.93.93c-2-3-5.1-4.64-7.44-6.05"></path><path class="cls-1" d="M325.57,196.73a2,2,0,0,1,0-2.32,1.4,1.4,0,0,1,1.86,0l6.51,7.44-.47.93c-2.54-2.88-4.71-5.24-7.9-6.05"></path><path class="cls-1" d="M325.1,204.17a1.43,1.43,0,0,1,0-1.86c.47-.93,1.4-.46,1.86,0l6.05,7.91-.93.46c-1.89-2.78-4.59-4.66-7-6.51"></path><path class="cls-1" d="M323.71,210.68a2,2,0,0,1,0-2.32c.93-.47,1.85-.47,2.32.46l5.12,8.37-.93.47c-1.61-3-4.37-5.12-6.51-7"></path><path class="cls-1" d="M320,225.56c-.47-.93-.47-1.86.46-2.32a1.15,1.15,0,0,1,1.86.46l5.12,8.38-.93.46c-1.63-3-4.25-5-6.51-7"></path><path class="cls-1" d="M316.73,232.54a1.68,1.68,0,1,1,2.8-1.86l4.64,9.76-.93.47c-1.86-3.58-3.33-6.63-6.51-8.37"></path><path class="cls-1" d="M321.85,217.19c-.47-.93-.47-1.86.46-2.32.47-.47,1.4,0,1.86.46l5.12,9.77-.93.46c-1.49-3.47-4.25-6.06-6.51-8.37"></path><path class="cls-1" d="M284.65,66.53C312.55,94,330.22,127,335.33,162.79c5.12,36.27-2.79,73-22.78,106a1.62,1.62,0,0,1-2.32.47,1.15,1.15,0,0,1-.47-1.86c19.53-32.56,27.43-68.36,22.32-104.17-5.12-34.88-21.85-67.89-49.29-94.4-.92-.46-.92-1.39,0-2.32a1.4,1.4,0,0,1,1.86,0"></path><path class="cls-1" d="M181,332.29a11.63,11.63,0,1,1,11.62-11.63A11.65,11.65,0,0,1,181,332.29m0-21.62a10,10,0,1,0,10,10,10,10,0,0,0-10-10"></path><path class="cls-1" d="M214.84,332.29a11.63,11.63,0,1,1,11.62-11.63,11.64,11.64,0,0,1-11.62,11.63m0-21.62a10,10,0,1,0,10,10,10,10,0,0,0-10-10"></path><path class="cls-1" d="M197.91,332.29a11.63,11.63,0,1,1,11.62-11.63,11.65,11.65,0,0,1-11.62,11.63m0-21.62a10,10,0,1,0,10,10,10,10,0,0,0-10-10"></path><path class="cls-1" d="M164.05,332.29a11.63,11.63,0,1,1,11.62-11.63,11.65,11.65,0,0,1-11.62,11.63m0-21.62a10,10,0,1,0,10,10,10,10,0,0,0-10-10"></path><path class="cls-1" d="M147.12,332.29a11.63,11.63,0,1,1,11.63-11.63,11.65,11.65,0,0,1-11.63,11.63m0-21.62a10,10,0,1,0,10,10,10,10,0,0,0-10-10"></path><path class="cls-1" d="M130.19,332.29a11.63,11.63,0,1,1,11.63-11.63,11.64,11.64,0,0,1-11.63,11.63m0-21.62a10,10,0,1,0,10,10,10,10,0,0,0-10-10"></path><path class="cls-1" d="M231.76,332.29a11.63,11.63,0,1,1,11.63-11.63,11.64,11.64,0,0,1-11.63,11.63m0-21.62a10,10,0,1,0,10,10,10,10,0,0,0-10-10"></path><path class="cls-1" d="M123.07,304.72h8.71A130.94,130.94,0,0,1,180.93,52.44h0c72.18,0,130.92,58.72,131,130.91v.1a131.19,131.19,0,0,1-81.51,121.27h8.65a134.74,134.74,0,0,0,76.37-121.27v-.1c0-74.13-60.34-134.41-134.46-134.41h0C106.79,49,46.49,109.31,46.52,183.45a134.65,134.65,0,0,0,76.55,121.27"></path><path class="cls-1" d="M316.27,252.07,310,233c-11.28,30.58-33.9,56.14-62.36,71.84V336.6h-3.41v5.68A169.67,169.67,0,0,0,346,227.89Z"></path><path class="cls-1" d="M114.34,336.6V304.72h.35c-28.63-15.3-51.68-39.94-63-70.5l-6,17.85L15.93,227.89A169.67,169.67,0,0,0,117.75,342.28V336.6Z"></path><path class="cls-1" d="M248.2,337.18H113.76v-33H248.2ZM114.92,336H247V305.3H114.92Z"></path><path class="cls-1" d="M240.25,204a15.72,15.72,0,0,0-.16-3.3l.09,3.3Z"></path><path class="cls-1" d="M248.45,232.23c-.69,1.42,2,4.27,4,4.89,1.26.4,4.92-.94,5.62-2.08a25.78,25.78,0,0,0,3.42-8.59l-13.05,0c-.16,1.91,1,3.78,0,5.83"></path><path class="cls-1" d="M267.92,210.66c-.49-3-.3-6-2.11-8.79-.71-1.08-2-.92-2.06-.47-.39,2.3-2.88,3.32-3.65,5.17a8.63,8.63,0,0,1-7,5.46c-2.5.31-4.56,3.41-3.41,5.49a4.61,4.61,0,0,1,.05,4.91,7.83,7.83,0,0,0-.57,1.33l13.3.06c1.41-4.3,1.73-9,5.26-12.52a.82.82,0,0,0,.18-.64"></path><path class="cls-1" d="M221.09,206.69a5.52,5.52,0,0,1-4.62-1.94,4.66,4.66,0,0,1-.12-4.8l.47-1a27.68,27.68,0,0,0,1.52-3.69c1-3.38.39-5.88-1.93-7.87-2.86-2.44-8.72-2.89-12.54-1a6.27,6.27,0,0,0-3.84,5.9c0,2.64,1,5.06,2.26,7.73a4.5,4.5,0,0,1-.12,4.69,5.32,5.32,0,0,1-4.5,2c-5.51,0-11.65,0-17.63,0h-10.3c-1,2-.24,4.4-.57,6.57-.22,1.32,1.19,3.35-1.69,3.71-.13,0-.24.67-.24,1a5.48,5.48,0,0,0,1,3c3.93,5.58,6.45,11.52,6.6,18.27a12.35,12.35,0,0,0,3.52,8.05c2.34,2.61,3.34,6,4.52,9.26a1.25,1.25,0,0,1-.27,1.3c-.93,1-.28,1.88.23,2.7,1.73,2.78,4.47,3.46,7.86,1.91a8.11,8.11,0,0,1,4.74-1,14.62,14.62,0,0,0,10.89-2.8c4.92-3.43,8.24-8.08,11.46-12.74,1-1.5,2.52-3.33,1-5.46-.37-.53.31-1,.73-1.3a10.55,10.55,0,0,1,3-1.53c3.12-1.17,3.78-2.28,3.55-5.45a18.23,18.23,0,0,0-.93-4.91,3.45,3.45,0,0,1,1.29-4.42,58.26,58.26,0,0,1,9.79-6.91c4.16-2.15,4.45-5.65,4.1-9.3h-3.15c-5.35,0-11.24,0-16.12,0"></path><path class="cls-1" d="M167.34,179.31a5.05,5.05,0,0,1,2.28-4.33c.94-.57,2.59-1.06,5.14-.21l4.5,1.48,1.85.6a10.54,10.54,0,0,0,3.76,0c4-1.09,6-3.78,6.06-8.2,0-2.42-.58-8.1-6.86-8.41l-.2,0c-1.1-.2-1.75-.29-2.3.05l-.38.16L175.44,162a6.66,6.66,0,0,1-3,.86l-.21,0-.21,0c-3.11-.63-4.68-2.58-4.66-5.8,0-6.76,0-13.75,0-21.39,0-.4,0-.76,0-1.07s0-.59,0-.83c-.27,0-.64,0-1,0h-1.23c-4.77,0-9.54,0-14.31,0l-11,0c-1,.4-1.27.92-.65,2.39a13.65,13.65,0,0,0,.86,1.72,8.81,8.81,0,0,1,1.24,3.52l.51,2.15-.06.28a5.39,5.39,0,0,0,0,2.2l.06.34-.13.32-.33.89a10,10,0,0,1-2.42,4.15c-4.57,4.3-14.08,4.52-18.83.44a9.54,9.54,0,0,1-3-4.64c-1.13-3.79.35-7,1.78-10.08L119,137c.89-1.94.65-2.61.5-2.82s-.71-.65-2.9-.66l-14,0-8,0c.41,1.73.82,2.86.39,4.82-.19.92.76,1.35,1.48,1.91,2.9,2.22,5.86,4.54,7.05,7.92a9.17,9.17,0,0,0,3.19,4.68c2.45,1.8,4.92,3.58,7.37,5.39a6,6,0,0,0,6.67.68,11.76,11.76,0,0,1,9.11-.72,6.2,6.2,0,0,0,4.92-.43c3.21-1.36,6.37-2.92,10-3.13,3.81-.23,5,.42,6.33,3.71a2.29,2.29,0,0,0,3,1.63c.89-.18,1.8-.25,2.68-.37,2.91-.41,5.9,1.72,5.69,4.36a23,23,0,0,1-1.53,7.52,4.65,4.65,0,0,0,.48,5.24c1,1.37,2,2.75,3.07,4.11s1.92,1.89,2.65,3c.06-.88.08-1.76.11-2.53s.05-1.4.08-2"></path><path class="cls-1" d="M167.45,184.87l-.6-.9a9.58,9.58,0,0,0-1.2-1.35A15.49,15.49,0,0,1,164.2,181c-.9-1.18-1.78-2.37-2.66-3.57l-.41-.55a4.93,4.93,0,0,1-.51-5.55,22.74,22.74,0,0,0,1.49-7.42,3.39,3.39,0,0,0-1.31-2.86,5.09,5.09,0,0,0-4-1.14l-.86.1c-.6.07-1.21.15-1.79.27a2.65,2.65,0,0,1-3.42-1.85c-1.26-3.13-2.26-3.72-6-3.49-3.15.18-6,1.42-8.74,2.61l-1.15.5a6.57,6.57,0,0,1-5.19.43,11.42,11.42,0,0,0-8.82.71,6.4,6.4,0,0,1-7.07-.72l-3.79-2.77-3.58-2.63a9.51,9.51,0,0,1-3.3-4.83c-1.18-3.33-4.24-5.69-6.94-7.77l-.4-.28c-.66-.47-1.41-1-1.2-1.95a7.82,7.82,0,0,0-.24-4.05l-.25-1,8.78,0,13.66,0c2.17,0,2.94.45,3.2.81s.41,1.22-.47,3.13l-.16.35c-1.4,3-2.86,6.18-1.76,9.87a9.28,9.28,0,0,0,2.92,4.48c4.62,4,13.87,3.75,18.32-.43a9.56,9.56,0,0,0,2.33-4c.11-.3.22-.59.34-.89l.1-.24-.05-.26a5.81,5.81,0,0,1,0-2.32l0-.21-.5-2.08a8.47,8.47,0,0,0-1.2-3.43,13,13,0,0,1-.88-1.76c-.64-1.51-.4-2.3.84-2.81l.07,0h.08l10.08,0h.92l14.31,0h2.56v.32c0,.23,0,.51,0,.79s0,.72,0,1.12c0,7.66,0,14.66,0,21.39,0,3.08,1.41,4.87,4.38,5.47l.15,0h.16a6.41,6.41,0,0,0,2.87-.81l.08,0,5.75-1.62.33-.15a3.57,3.57,0,0,1,2.53-.07l.18,0c6.56.32,7.2,6.22,7.17,8.75-.07,4.51-2.19,7.38-6.31,8.51a11.33,11.33,0,0,1-3.94,0l-1.9-.62-4.5-1.48c-2.41-.8-3.95-.35-4.82.17a4.77,4.77,0,0,0-2.12,4.08c0,.55,0,1.22-.08,1.95s-.05,1.65-.11,2.53Z"></path><path class="cls-1" d="M116.59,130.92c2.68,0,4.41.62,5.3,1.85,1.19,1.66.43,3.82-.25,5.29l-.17.36c-1.29,2.8-2.51,5.44-1.65,8.36a6.91,6.91,0,0,0,2.22,3.41c3.59,3.07,11.33,2.89,14.78-.36a7.6,7.6,0,0,0,1.76-3.15c.07-.22.15-.43.23-.63a8,8,0,0,1,0-2.54l-.41-1.71a6.69,6.69,0,0,0-1-2.77,17.11,17.11,0,0,1-1-2c-1.58-3.75.9-5.3,2.52-5.89l.25-.09h.28l11.3,0,14.31,0h1.48c0-.09,0-.18,0-.26.06-3.25.23-7,.4-10.67.22-4.57.44-9.3.44-13.29,0-2.68-.5-3.18-.65-3.27s-.69-.29-2.94.65a35.12,35.12,0,0,1-3.84,1.26c-.58.17-1.16.33-1.73.51a10.58,10.58,0,0,1-4.7.08c-5.09-1-8.48-4.72-8.65-9.38-.11-3-.21-6.19,2.21-9.07a11.1,11.1,0,0,1,10.2-3.6,34.08,34.08,0,0,1,6.83,2.11,3.23,3.23,0,0,0,2.47.12,4.5,4.5,0,0,0,1.89-1.58c-2-.4-3.31-2-5.09-2.72-.19-.08-.36-.69-.25-.78,1.84-1.68,2.23-3.46.67-5.48-.1-.11.27-.52.44-.76s.41-.49,0-.69c-1.29-.57-2.36-2-4.1-.83a3.67,3.67,0,0,1-2.38.48c-3.73-.34-7.4.4-11.12.44a17.15,17.15,0,0,0-9.54,2.83,13.77,13.77,0,0,1-11.74,1.93c-1.2-.3-1.81-.22-2.31.83a5.25,5.25,0,0,1-2.93,2.67c-4.17,1.61-6,4.51-5.6,8.6a2.06,2.06,0,0,1-.63,1.66,12.33,12.33,0,0,1-5,4,12.94,12.94,0,0,0-5.23,4.09c-2.42,2.8-3.61,6.27-6,9.13-1.82,2.23-4.14,4.68-1.18,7.67a.88.88,0,0,1,.12.43c.65,4.39.48,8.67-1.65,12.66l7.55,0,14,0"></path><path class="cls-1" d="M167.77,88.75a6.2,6.2,0,0,1-4.83-.17,30.9,30.9,0,0,0-6.23-1.92,8.06,8.06,0,0,0-7.27,2.64c-1.79,2.13-1.71,4.56-1.61,7.37.12,3.47,2.57,6.11,6.37,6.89a7.32,7.32,0,0,0,3.24,0l1.73-.51a32.83,32.83,0,0,0,3.51-1.14c1.76-.74,4-1.46,5.69-.47s2,3.24,2,5.49c0,4-.22,8.81-.44,13.41-.17,3.79-.34,7.37-.39,10.59a4.44,4.44,0,0,0,.05.9,1.43,1.43,0,0,1,.19.24,4.24,4.24,0,0,0,1,.08c3.86,0,7.67-.21,11.35-.36,4.62-.19,9.34-.38,14.29-.37h2c1.62-.65,1.64-1,1.09-2.43-.4-1.06-.84-2.67-1.23-4.09-.21-.8-.42-1.56-.59-2.13-1.18-3.72-.84-7,1-9.57s4.87-4.05,8.9-4.52c4.69-.53,9.21.85,11.81,3.62,1.7,1.81,3.4,5,1.82,10.16a25.17,25.17,0,0,1-1.5,3.56c-.19.4-.38.8-.56,1.2a1.68,1.68,0,0,0,1.62,2.77c4.3,0,11,0,16.35,0a4.31,4.31,0,0,1-1.07-2.27,7.84,7.84,0,0,0-3-4.81,5.71,5.71,0,0,1-2.2-4.65c0-2.67-.75-5.12-3.28-6.8a3.27,3.27,0,0,1-1.3-2.38,11.13,11.13,0,0,0-1.6-3.77c-1.75-3-3.49-6-5.24-9a7.12,7.12,0,0,0-1-2.52c.52.88.77,1.58,1.48,2,.2.25.37.5.58.73.47.53,1,1.31,1.73,1.12s.7-1.09.9-1.74a6.94,6.94,0,0,0-.56-5.31c-.31-.63-.66-1.18-1.6-1.14a14,14,0,0,1-5.07-.87,5.29,5.29,0,0,0-4.51.58,5,5,0,0,1-3.79.61c-4.83-.89-9.54-2-13.76-4.5-1.75-1-3.68-.62-5.43.27-1.51.79-1.48,2.06-1.09,3.39a1.48,1.48,0,0,1-.75,1.94,2.73,2.73,0,0,1-2.83.15A16.51,16.51,0,0,0,178,88.88a2.52,2.52,0,0,1-1.81-1.11c-1-2.07-2.64-2.51-4.52-2.73a7.6,7.6,0,0,1-3.91,3.71"></path><path class="cls-1" d="M197.66,204a2.5,2.5,0,0,0,2.1-.76,2.24,2.24,0,0,0-.12-2.2c-1.34-2.84-2.54-5.65-2.49-8.82a8.88,8.88,0,0,1,5.33-8.17c5-2.5,12.1-1.9,15.9,1.35,3.1,2.66,4,6.19,2.74,10.5a28.6,28.6,0,0,1-1.65,4l-.46,1a2.36,2.36,0,0,0-.13,2.32,2.76,2.76,0,0,0,2.23.76c4.87,0,10.76,0,16.1,0h3l-.09-3.3a5.93,5.93,0,0,0-1.77-3.3,4.41,4.41,0,0,1-.82-2.34c-.43-2.48.44-5.15-1.24-7.49-.16-.24,0-.75.12-1.1A31.24,31.24,0,0,1,239.5,180l.29-.41a5.5,5.5,0,0,1,.66-.8c4.44-5,8.53-10.12,14.18-14.18,7.08-5.09,9-13.12,12.13-20.4a7.2,7.2,0,0,0,.38-2.23c.12-1.41-.47-2.09-2.05-1.44-4.33,1.8-9.06,2.2-13.57,3.42a2.33,2.33,0,0,1-2.67-.71c-.88-1.23-3.59-1.87-1.74-4.11.1-.13-.29-.69-.56-1a47.43,47.43,0,0,0-6.14-5.61H238.8c-5.61,0-13.3.09-18.08.05a5,5,0,0,1-4.11-1.81,4.5,4.5,0,0,1-.14-4.62l.58-1.24a23.91,23.91,0,0,0,1.37-3.22c1-3.16.54-5.83-1.23-7.72-2-2.1-5.55-3.14-9.27-2.72-3.17.37-5.54,1.53-6.85,3.35s-1.57,4.43-.63,7.39c.18.6.4,1.39.62,2.22.37,1.37.79,2.91,1.15,3.85,1.12,2.87.24,4.62-3,5.84L199,134h-2.58c-4.88,0-9.58.18-14.16.37-3.7.15-7.53.31-11.45.35h-.13l-.44,0c0,.27,0,.57,0,.92,0,7.64,0,14.64,0,21.4,0,2.15.86,2.85,2.19,3.16a3.6,3.6,0,0,0,1.59-.49l.4-.18,5.77-1.63a6.08,6.08,0,0,1,4.17-.35c5.93.35,9.56,4.58,9.48,11.08-.08,5.57-2.93,9.28-8.24,10.73a14.11,14.11,0,0,1-5.1,0l-.23-.06-1.94-.63-4.53-1.49a3.35,3.35,0,0,0-2.56-.07,2.76,2.76,0,0,0-1,2.29c0,.53-.05,1.17-.08,1.88a29.18,29.18,0,0,1-.84,7.4l-.19-.06a37.38,37.38,0,0,0,1.53,3.58c.33.67,1,1.42.46,2.15-1,1.48-.32,2.82.42,4.05,1.4,2.34,2.16,3.67.39,5.6,8.27,0,17.68,0,25.75,0"></path><path class="cls-1" d="M240.22,205.35c0-.44,0-.88,0-1.32h-.06Z"></path><path class="cls-1" d="M125.28,24.65l17.51,18.89-7,2.76-3.1-3.55-8.73,3.42.17,4.7-6.57,2.58.22-25.85Zm-2.3,6.2.6,10.15,5.58-2.18Z"></path><path class="cls-1" d="M140.33,31.72l-1-4.07,3-.71a15.21,15.21,0,0,1-.36-2.16,14.76,14.76,0,0,1,0-2.1,4.33,4.33,0,0,1,.53-1.83,4.28,4.28,0,0,1,1.33-1.43l.6-.33a4.78,4.78,0,0,1,.62-.26,7.07,7.07,0,0,1,.67-.26l.65-.22.11,0a.17.17,0,0,0,.11-.06l.09,0,.13,0,.21-.05.24-.05,1-.21c.31-.06.63-.11.94-.14l.44-.05.44-.08.42-.05.41,0,.94,4a2.88,2.88,0,0,1-.59,0,2.53,2.53,0,0,0-.55,0h-.45l-.38.05a1.9,1.9,0,0,0-.9.44,1.26,1.26,0,0,0-.41.79,3.86,3.86,0,0,0-.08,1,5.09,5.09,0,0,0,.13,1,.65.65,0,0,0,0,.2c0,.07,0,.13,0,.2s0,0,0,.08a.31.31,0,0,1,0,.08.51.51,0,0,1,0,.09l0,.1,3.53-.89,1,4.06-3.55.83,2.85,12.19-6.35,1.49L143.37,31Z"></path><path class="cls-1" d="M171.83,21.28a3.8,3.8,0,0,0-.94-1,3.59,3.59,0,0,0-1.38-.64,5.54,5.54,0,0,0-1.75-.11,4.9,4.9,0,0,0-2.39.79,3.07,3.07,0,0,0-1.2,1.81,13.32,13.32,0,0,0-.39,2.41,16.33,16.33,0,0,0,0,2.62.62.62,0,0,0,0,.13v.13a1,1,0,0,1,0,.16c0,.05,0,.09,0,.13s0,.09,0,.14,0,.09,0,.13l0,.16a.66.66,0,0,0,0,.14,20.34,20.34,0,0,0,.65,2.93,9.88,9.88,0,0,0,1,2.24,3.43,3.43,0,0,0,1.5,1.36,4.45,4.45,0,0,0,2.18.3,5.85,5.85,0,0,0,1.82-.45,3.15,3.15,0,0,0,1.21-1,4.73,4.73,0,0,0,.65-1.26,3.36,3.36,0,0,0,.14-1.34l7-.72c0,.2,0,.39,0,.57s0,.35,0,.53A3.29,3.29,0,0,1,180,32c0,.18,0,.36-.08.54a7.45,7.45,0,0,1-.88,2.36,10.3,10.3,0,0,1-1.76,2.2,8.07,8.07,0,0,1-2.92,1.7,17.62,17.62,0,0,1-4.23.86,18.59,18.59,0,0,1-5.75-.26,8.41,8.41,0,0,1-4-2,10.89,10.89,0,0,1-2.5-3.51,16.37,16.37,0,0,1-1.28-4.69c0-.05,0-.1,0-.15s0-.12,0-.18,0-.13,0-.18,0-.11,0-.15a17.94,17.94,0,0,1,.25-5.93A8.37,8.37,0,0,1,159,18.53,10.87,10.87,0,0,1,162.56,16a15.53,15.53,0,0,1,4.77-1.15,20.71,20.71,0,0,1,5.23.09,8.17,8.17,0,0,1,3.59,1.4,7.43,7.43,0,0,1,2.16,2.39,7.89,7.89,0,0,1,.94,3.14l-7,.58a2.84,2.84,0,0,0-.39-1.18"></path><polygon class="cls-1" points="201.52 15.61 201.2 20.54 191.05 19.88 190.69 25.37 200.05 25.98 199.75 30.64 190.39 30.03 189.81 38.89 183.04 38.45 184.59 14.51 201.52 15.61"></polygon><polygon class="cls-1" points="226.85 20.49 225.84 25.32 218.45 23.77 214.53 42.41 208.15 41.07 212.06 22.42 204.67 20.87 205.68 16.04 226.85 20.49"></polygon><path class="cls-1" d="M244.77,26.94,245,52.7,238,50l.1-4.71L229.3,42l-3,3.6-6.59-2.51,17.54-19Zm-5.88,3-6.38,7.91,5.6,2.14Z"></path><path class="cls-1" d="M104.89,246.91a1.32,1.32,0,0,0,.24-.52,1.45,1.45,0,0,0,0-.63,2.26,2.26,0,0,0-.22-.7,2,2,0,0,0-.67-.8,1.3,1.3,0,0,0-.89-.2,5.86,5.86,0,0,0-1,.22,7.1,7.1,0,0,0-1,.39l0,0,0,0-.06,0,0,0,0,0-.05,0a.11.11,0,0,1-.06,0l-.05,0a7.51,7.51,0,0,0-1,.7,3.5,3.5,0,0,0-.72.72,1.36,1.36,0,0,0-.3.79,1.68,1.68,0,0,0,.21.89,2.13,2.13,0,0,0,.45.64,1.34,1.34,0,0,0,.56.33,1.94,1.94,0,0,0,.58.06,1.33,1.33,0,0,0,.55-.15l1.34,2.62-.21.1-.21.08a.79.79,0,0,1-.22.06l-.22.05a3.08,3.08,0,0,1-1,0,4.42,4.42,0,0,1-1.13-.35,3.42,3.42,0,0,1-1.1-.88,7.57,7.57,0,0,1-1-1.51,8.12,8.12,0,0,1-.78-2.28,3.51,3.51,0,0,1,.19-1.87,4.55,4.55,0,0,1,1-1.5,6.71,6.71,0,0,1,1.63-1.21l0,0,.07,0,.07,0,0,0a7.27,7.27,0,0,1,2.35-.8,3.45,3.45,0,0,1,1.91.22,4.52,4.52,0,0,1,1.52,1,6.26,6.26,0,0,1,1.17,1.68,8.83,8.83,0,0,1,.76,2,3.36,3.36,0,0,1,0,1.61,3.13,3.13,0,0,1-.6,1.21,3.27,3.27,0,0,1-1.08.84l-1.29-2.65a1.26,1.26,0,0,0,.4-.33"></path><path class="cls-1" d="M108,252.23l0,0,0,0-.08.09-.09.1-.13.12-.15.14-.09.07a.38.38,0,0,0-.09.09l-.09.06-.1.08a2.09,2.09,0,0,1,.75-.15,1.45,1.45,0,0,1,.66.15,3.33,3.33,0,0,1,.61.42,4.86,4.86,0,0,1,.57.61l-1.8,1.38s0,0-.06,0l0-.06,0-.06,0-.05,0-.06a.14.14,0,0,1,0-.06l-.05-.06,0-.05a2.41,2.41,0,0,0-.51-.5,2.2,2.2,0,0,0-.62-.29,1.3,1.3,0,0,0-.65,0,1.89,1.89,0,0,0-.66.34l-2.57,2-1.66-2.16,4.24-3.25.25-.19.18-.14.06,0,0,0,0,0,0,0,.07-.08.1-.1a.8.8,0,0,1,.16-.15,2.65,2.65,0,0,0,.25-.24l0,0Z"></path><path class="cls-1" d="M111.38,262.71a2.71,2.71,0,0,1-1,.52,2.45,2.45,0,0,1-1.08,0,4,4,0,0,1-1.1-.44,5.66,5.66,0,0,1-1.1-.88,5.87,5.87,0,0,1-1-1.36,2.64,2.64,0,0,1-.37-1.31A2.78,2.78,0,0,1,106,258a5.6,5.6,0,0,1,1-1.32,4.56,4.56,0,0,1,1.26-.91,3.23,3.23,0,0,1,2.72,0,4.45,4.45,0,0,1,1.26.91,4.82,4.82,0,0,1,1.09,1.54,2.36,2.36,0,0,1,.13,1.5,5.19,5.19,0,0,1-.56,1.42,6.84,6.84,0,0,1-1,1.32l-3.52-3.56-.12.12-.11.12a.53.53,0,0,0-.12.14l-.11.16a1.2,1.2,0,0,0-.13.31,1.21,1.21,0,0,0,0,.34.67.67,0,0,0,.09.38,1.54,1.54,0,0,0,.29.38l0,0,0,0,0,0s0,0,0,0l0,0,0,0a1.57,1.57,0,0,0,.31.18,1.9,1.9,0,0,0,.36.09.92.92,0,0,0,.37,0,.77.77,0,0,0,.33-.22l0,0Zm0-3.7a1.07,1.07,0,0,0,.12-.49,1.29,1.29,0,0,0-.08-.49,1,1,0,0,0-.25-.38.94.94,0,0,0-.4-.25,1.57,1.57,0,0,0-.5,0,1.38,1.38,0,0,0-.5.14,1.62,1.62,0,0,0-.43.31l1.71,1.67a1.62,1.62,0,0,0,.33-.46"></path><path class="cls-1" d="M114.93,267.38s0,0,0,0l0,0,0,0-.1,0-.11,0a2.6,2.6,0,0,1-.4,0,2.06,2.06,0,0,1-.47-.07,1.78,1.78,0,0,1-.5-.18,2.79,2.79,0,0,1-.53-.34,4.34,4.34,0,0,1-.84-.8,1.93,1.93,0,0,1-.39-.75,2.48,2.48,0,0,1,0-.71,2,2,0,0,1,.17-.61,1.42,1.42,0,0,1,.08-.18,1,1,0,0,1,.1-.17c0-.06.07-.11.1-.16l.12-.14a2,2,0,0,1,1.07-.72,2.23,2.23,0,0,1,1.31.11,9.81,9.81,0,0,1,1.44.67,11.07,11.07,0,0,1,1.43.95,4.85,4.85,0,0,0,.3-.43c.09-.15.16-.28.23-.41a.5.5,0,0,0,0-.38.71.71,0,0,0-.28-.36,1.09,1.09,0,0,0-.33-.18.65.65,0,0,0-.31,0,.88.88,0,0,0-.26.1,1.18,1.18,0,0,0-.22.17l0,0,0,0,0,0,0,0,0,.07,0,.06-2.06-1.61a2,2,0,0,1,.83-.67,1.77,1.77,0,0,1,1-.09,4.23,4.23,0,0,1,1.13.36,7.14,7.14,0,0,1,1.16.73,5.51,5.51,0,0,1,.89.84,4.57,4.57,0,0,1,.61.94,2,2,0,0,1,.2.94,1.38,1.38,0,0,1-.32.82l-2.17,2.83a3.15,3.15,0,0,0-.22.29l-.23.33c-.07.11-.14.24-.21.37a2.85,2.85,0,0,0-.16.44l-2.07-1.6s0,0,0,0l0,0a.13.13,0,0,1,0-.07l0-.09a.47.47,0,0,1,.05-.1l.08-.13a.6.6,0,0,1,.09-.15l.12-.16,0,0-.06,0m1.36-2-.15-.11-.15-.11-.16-.09a2.82,2.82,0,0,0-.42-.22,3,3,0,0,0-.42-.15.85.85,0,0,0-.38,0,.51.51,0,0,0-.28.15l0,0h0v0h0l0,0v0h0a.88.88,0,0,0-.16.32,1.26,1.26,0,0,0,0,.39,1.06,1.06,0,0,0,.12.38,1,1,0,0,0,.24.29l.07.05.08.05.09,0,.08,0a.48.48,0,0,0,.18,0,.83.83,0,0,0,.22,0,1.28,1.28,0,0,0,.28-.07,1.41,1.41,0,0,0,.24-.13l.23-.18a1.9,1.9,0,0,0,.21-.19.21.21,0,0,0,0-.06l.06-.05,0-.05.06-.07a.76.76,0,0,1,.08-.11l.09-.12,0,0-.16-.08"></path><path class="cls-1" d="M125.59,264.67l-1.11,1.76,1.28.81-.87,1.38-1.28-.82L122,270.29a2.4,2.4,0,0,0-.23.45.61.61,0,0,0,0,.32.47.47,0,0,0,.13.24,1,1,0,0,0,.24.21l.11.07.12.06.12.06a.61.61,0,0,0,.14.07h.08l0,0h.06l0,0h0l-.85,1.36-.42-.19c-.14-.06-.27-.13-.4-.2a3.55,3.55,0,0,1-.39-.2l-.36-.22a4.38,4.38,0,0,1-.76-.6,3.13,3.13,0,0,1-.53-.66,1.23,1.23,0,0,1-.16-.77,2.19,2.19,0,0,1,.35-.88l2-3.15-1.09-.7.87-1.38,1.1.7.58-.92Z"></path><path class="cls-1" d="M128.84,268.79,125.4,275,123,273.66l3.43-6.19Zm1.42-2.56-.85,1.52L127,266.43l.85-1.52Z"></path><path class="cls-1" d="M132.16,270.47l0,0s0,0,0,.06a.19.19,0,0,1,0,.08l0,.11-.05.12a.65.65,0,0,1,0,.13.74.74,0,0,1,0,.14l0,.14,0,0h0a3.41,3.41,0,0,1,.48-.18,2.52,2.52,0,0,1,.56-.09,1.74,1.74,0,0,1,.6,0,2.86,2.86,0,0,1,.64.22l.22.1.24.16a2.2,2.2,0,0,1,.25.17,2.43,2.43,0,0,1,.25.2,2.61,2.61,0,0,1,.4.47,2.67,2.67,0,0,1,.31.58,1.34,1.34,0,0,1,.1.67,2.35,2.35,0,0,1-.23.78L133.6,279l-2.37-1.11L133,274a1.86,1.86,0,0,0,.16-.55.93.93,0,0,0-.06-.47,1.07,1.07,0,0,0-.21-.36,1.05,1.05,0,0,0-.3-.25h0a1.14,1.14,0,0,0-.4-.08,1.52,1.52,0,0,0-.42.06,1,1,0,0,0-.39.25,1.58,1.58,0,0,0-.29.41l-1.83,3.92-2.46-1.15,2.35-5,0-.11.06-.12a.56.56,0,0,1,0-.12l.06-.13c0-.08.06-.17.09-.24a2.09,2.09,0,0,0,.08-.23,1.89,1.89,0,0,1,.06-.18.46.46,0,0,0,0-.13.5.5,0,0,1,.05-.13v0Z"></path><path class="cls-1" d="M139.84,280.41a1.54,1.54,0,0,1-.52.14,5.33,5.33,0,0,1-.56,0,2.53,2.53,0,0,1-.55-.09h-.11l-.11,0-.1,0-.1,0a3.17,3.17,0,0,1-1.11-.67,2.83,2.83,0,0,1-.69-1.07,3.28,3.28,0,0,1-.23-1.27A3.85,3.85,0,0,1,136,276a3.72,3.72,0,0,1,.67-1.19,3.4,3.4,0,0,1,1-.83,3,3,0,0,1,1.21-.36,3.06,3.06,0,0,1,1.28.2,4.12,4.12,0,0,1,.73.34,2.13,2.13,0,0,1,.51.41,1.46,1.46,0,0,1,.32.52,2.5,2.5,0,0,1,.16.64c0-.07.05-.13.07-.19a1.09,1.09,0,0,1,.08-.15l.07-.15.07-.14a.37.37,0,0,0,.06-.1l.05-.08,0,0,0,0h0l2.46.87-2.14,5.83a3.8,3.8,0,0,1-.72,1.28,2.47,2.47,0,0,1-1,.7,4.65,4.65,0,0,1-1.12.26,4.49,4.49,0,0,1-1.1,0l-.12,0-.11,0-.12,0-.12,0-.23-.06-.21-.07-.07,0-.06,0-.05,0,0,0h0v0h-.07l-.29-.11-.31-.15-.17-.09-.15-.08-.17-.09-.16-.1a3.75,3.75,0,0,1-.61-.51,4.48,4.48,0,0,1-.51-.64,1.5,1.5,0,0,1-.25-.77,2.46,2.46,0,0,1,.17-.91l2.45.9a1,1,0,0,0-.05.29,1.07,1.07,0,0,0,.06.3.88.88,0,0,0,.21.29,2,2,0,0,0,.4.28,1.84,1.84,0,0,0,.85.13.79.79,0,0,0,.54-.34,6.16,6.16,0,0,0,.37-.63,5.42,5.42,0,0,0,.33-.76.14.14,0,0,0,0-.06l0-.06a.14.14,0,0,1,0-.06l0-.06v0a1.7,1.7,0,0,1-.47.3m1.35-2.7v-.07l0,0a0,0,0,0,1,0,0v0a2.33,2.33,0,0,0,.09-.58,2.78,2.78,0,0,0-.06-.58,1,1,0,0,0-.24-.49,1,1,0,0,0-.44-.29l-.11,0-.13,0H140a1.21,1.21,0,0,0-.35.12,2.31,2.31,0,0,0-.37.24,1.5,1.5,0,0,0-.35.42,5,5,0,0,0-.29.65,2.91,2.91,0,0,0-.19.79,1.65,1.65,0,0,0,.06.64,1.58,1.58,0,0,0,.27.48,1.15,1.15,0,0,0,.45.28,1.16,1.16,0,0,0,.62.09.92.92,0,0,0,.51-.23,2.12,2.12,0,0,0,.42-.51,4.27,4.27,0,0,0,.35-.74v-.06"></path><path class="cls-1" d="M149.41,277.3a7.28,7.28,0,0,1,1.14-1.52,3,3,0,0,1,1.81-.83,7.4,7.4,0,0,1,2.72.21h.29a6.31,6.31,0,0,1,1.61.71,6.1,6.1,0,0,1,1.35,1.14,3.24,3.24,0,0,1,.74,1.78,7.5,7.5,0,0,1-.22,2.57c0,.13-.07.26-.1.4s-.08.27-.13.41a1.8,1.8,0,0,0-.08.21c0,.07,0,.14-.08.2l-.1.22a2,2,0,0,1-.1.21,4.72,4.72,0,0,1-.79,1.1,6.31,6.31,0,0,1-1.12.9,3.17,3.17,0,0,1-1.52.47,7.1,7.1,0,0,1-2.05-.22,8.06,8.06,0,0,1-2.47-1,3.23,3.23,0,0,1-1.29-1.45,6.75,6.75,0,0,1-.46-1.72,6.2,6.2,0,0,1,0-1.77v0s0,0,0,0v-.07a162248092260.28,162248092260.28,0,0,1,0-.16v0a7.59,7.59,0,0,1,.75-1.8m2,3.57a5,5,0,0,0,.17,1.14,2,2,0,0,0,.56.92,2.12,2.12,0,0,0,1,.49,2.09,2.09,0,0,0,1,0,1.64,1.64,0,0,0,.8-.44,3,3,0,0,0,.65-.89,6.52,6.52,0,0,0,.47-1.36,5.28,5.28,0,0,0,.15-1.22,3.74,3.74,0,0,0-.15-1.12,1.82,1.82,0,0,0-.52-.88,2.08,2.08,0,0,0-1-.48,1.93,1.93,0,0,0-1.07,0,1.71,1.71,0,0,0-.84.59,5.54,5.54,0,0,0-.62,1,6.31,6.31,0,0,0-.44,1.1v0a4.55,4.55,0,0,0-.13,1.2"></path><path class="cls-1" d="M162.73,279.88v.05a.2.2,0,0,0,0,.07.25.25,0,0,0,0,.08v.11a.53.53,0,0,0,0,.13.33.33,0,0,0,0,.14.71.71,0,0,1,0,.14c0,.06,0,.1,0,.15a0,0,0,0,1,0,0h0a2.59,2.59,0,0,1,.41-.31,2.25,2.25,0,0,1,.52-.24,1.82,1.82,0,0,1,.59-.14,3.13,3.13,0,0,1,.67,0l.24,0,.27.08.29.1a1.48,1.48,0,0,1,.29.12,2.9,2.9,0,0,1,.52.34,2.57,2.57,0,0,1,.46.47,1.31,1.31,0,0,1,.28.62,2.2,2.2,0,0,1,0,.81l-.77,4.91-2.58-.4.66-4.19a1.81,1.81,0,0,0,0-.57,1.08,1.08,0,0,0-.18-.44,1.67,1.67,0,0,0-.31-.29,1.09,1.09,0,0,0-.35-.15h0a1.15,1.15,0,0,0-.41,0,1.2,1.2,0,0,0-.38.18,1,1,0,0,0-.31.34,1.69,1.69,0,0,0-.16.48l-.66,4.27-2.7-.42.87-5.49s0-.07,0-.12l0-.14a.24.24,0,0,1,0-.12.68.68,0,0,0,0-.14c0-.09,0-.18,0-.26a1.94,1.94,0,0,0,0-.24,1.09,1.09,0,0,1,0-.19v-.14a.66.66,0,0,1,0-.14v0Z"></path><path class="cls-1" d="M175.15,286.2a2.69,2.69,0,0,1-.46,1.06,2.39,2.39,0,0,1-.81.7,3.41,3.41,0,0,1-1.13.36,5.46,5.46,0,0,1-1.41,0,6.33,6.33,0,0,1-1.68-.37,2.7,2.7,0,0,1-1.7-2,5.17,5.17,0,0,1-.07-1.65,4.24,4.24,0,0,1,.39-1.5,3.19,3.19,0,0,1,.85-1.1,3.33,3.33,0,0,1,1.24-.64,4.61,4.61,0,0,1,1.55-.1,4.79,4.79,0,0,1,1.83.49,2.41,2.41,0,0,1,1.05,1.07,4.72,4.72,0,0,1,.47,1.46,6.16,6.16,0,0,1,0,1.67l-5-.49v.16c0,.06,0,.11,0,.17a1.09,1.09,0,0,0,0,.18c0,.07,0,.13,0,.19a1.56,1.56,0,0,0,.28.63.71.71,0,0,0,.3.23,1.56,1.56,0,0,0,.47.1h.14l0,0h.05l.36-.06a1.3,1.3,0,0,0,.33-.17.81.81,0,0,0,.26-.26.78.78,0,0,0,.12-.38v0Zm-2.33-2.87a1.11,1.11,0,0,0-.23-.46,1.08,1.08,0,0,0-.36-.32,1,1,0,0,0-.44-.14.84.84,0,0,0-.47.07,1.3,1.3,0,0,0-.41.28,1.19,1.19,0,0,0-.3.43,1.49,1.49,0,0,0-.14.51l2.39.2a1.79,1.79,0,0,0,0-.57"></path><path class="cls-1" d="M187,278.75l4,10-3.15,0-.69-1.84-3.91,0-.63,1.86-2.94,0,3.92-10Zm-1.82,2.08-1.27,4.05,2.5,0Z"></path><path class="cls-1" d="M190.87,283.47l-.11-1.74,1.3-.08a5.52,5.52,0,0,1,0-.91,6.07,6.07,0,0,1,.13-.87,1.89,1.89,0,0,1,.35-.71,1.85,1.85,0,0,1,.65-.5l.27-.09.27-.06.3-.06.28-.05h.38l.41,0h1.12l.1,1.71-.24-.06-.22,0-.19,0a.85.85,0,0,0-.16,0,.86.86,0,0,0-.4.11.58.58,0,0,0-.23.3,1.59,1.59,0,0,0-.1.39,3.1,3.1,0,0,0,0,.43.27.27,0,0,0,0,.09v.23l1.52-.12.1,1.74-1.52.09.31,5.22-2.72.16-.31-5.22Z"></path><path class="cls-1" d="M199.49,281.09s0,0,0,.05a.25.25,0,0,0,0,.07l0,.12,0,.12a1.16,1.16,0,0,1,0,.18c0,.06,0,.13,0,.21a.34.34,0,0,1,0,.1l0,.13s0,.07,0,.11a.45.45,0,0,1,0,.12,2,2,0,0,1,.27-.71,1.41,1.41,0,0,1,.48-.49,2.71,2.71,0,0,1,.67-.29,4,4,0,0,1,.82-.16l.23,2.25-.08,0h-.47a2.12,2.12,0,0,0-.7.17,1.93,1.93,0,0,0-.57.37,1.28,1.28,0,0,0-.34.56,1.79,1.79,0,0,0-.06.74l.32,3.22-2.71.27-.53-5.31c0-.12,0-.23,0-.32s0-.16,0-.22,0-.05,0-.07v-.06a.07.07,0,0,1,0-.06v-.05l0-.1s0-.09,0-.15a1.07,1.07,0,0,1-.05-.21,2.14,2.14,0,0,0-.07-.35v0Z"></path><path class="cls-1" d="M204.78,277.38l.24,1.72-2.7.37-.24-1.73Zm.4,2.9.94,7-2.7.37-.94-7Z"></path><path class="cls-1" d="M214,283.06a3.25,3.25,0,0,1,0,1.4,2.35,2.35,0,0,1-.66,1.09,3.92,3.92,0,0,1-1.09.75,4.94,4.94,0,0,1-1.33.43,5.61,5.61,0,0,1-1.49.09,2.59,2.59,0,0,1-1.1-.32,4.28,4.28,0,0,1-.8-.63,3.5,3.5,0,0,1-.55-.73c-.06-.13-.13-.26-.18-.38s-.09-.26-.13-.38-.07-.25-.1-.36,0-.23-.07-.34a4.42,4.42,0,0,1,0-1.55,3.2,3.2,0,0,1,.6-1.26,3.52,3.52,0,0,1,1.05-.91,4.58,4.58,0,0,1,1.42-.5l.27,0,.28,0,.29,0,.29,0a4.34,4.34,0,0,1,1,.1,4.28,4.28,0,0,1,.91.32,1.83,1.83,0,0,1,.73.65,3,3,0,0,1,.4,1.07l-2.68.46a2.07,2.07,0,0,0-.15-.46,1,1,0,0,0-.25-.32.73.73,0,0,0-.35-.18,1.22,1.22,0,0,0-.43,0,.69.69,0,0,0-.39.22,1.22,1.22,0,0,0-.23.47,3.51,3.51,0,0,0-.07.66,5.11,5.11,0,0,0,.07.75l0,.07s0,0,0,.06,0,.05,0,.08a.13.13,0,0,1,0,.06,6.68,6.68,0,0,0,.18.71,5.93,5.93,0,0,0,.26.63,1,1,0,0,0,.37.4.75.75,0,0,0,.52.07,1,1,0,0,0,.4-.16.72.72,0,0,0,.26-.31,1.2,1.2,0,0,0,.11-.46,3.2,3.2,0,0,0-.06-.65v0Z"></path><path class="cls-1" d="M219.64,283.79v0l0,.05s0,0,0,.05a1,1,0,0,1,0,.1l-.06.1a1.9,1.9,0,0,1-.56.65,1.88,1.88,0,0,1-.46.28,3.42,3.42,0,0,1-.59.21,4.29,4.29,0,0,1-1.16.15,1.82,1.82,0,0,1-.82-.16,2.31,2.31,0,0,1-.58-.41,1.67,1.67,0,0,1-.37-.51,1.62,1.62,0,0,1-.1-.18.64.64,0,0,1-.06-.18.64.64,0,0,1-.06-.18c0-.06,0-.12-.05-.18a2.06,2.06,0,0,1,.11-1.29,2.2,2.2,0,0,1,.9-.95,9.93,9.93,0,0,1,1.42-.72,12.6,12.6,0,0,1,1.64-.52,5,5,0,0,0-.15-.5c-.06-.16-.12-.3-.18-.43a.56.56,0,0,0-.29-.26.89.89,0,0,0-.46,0,1.08,1.08,0,0,0-.34.15.62.62,0,0,0-.2.23,1.13,1.13,0,0,0-.09.28,2.35,2.35,0,0,0,0,.27s0,0,0,0v.14l0,.08s0,.05,0,.08l-2.54.6a2,2,0,0,1,0-1.06,1.76,1.76,0,0,1,.57-.86,3.89,3.89,0,0,1,1-.66,5.84,5.84,0,0,1,1.28-.45,5.46,5.46,0,0,1,1.22-.18,4.53,4.53,0,0,1,1.12.11,2.1,2.1,0,0,1,.86.42,1.45,1.45,0,0,1,.44.77l.86,3.46.09.36c0,.12.07.24.12.37a2.23,2.23,0,0,0,.16.4c.07.14.15.27.23.4l-2.53.63s0,0,0,0a0,0,0,0,0,0,0,.16.16,0,0,1,0-.06.41.41,0,0,0,0-.09s0-.07,0-.11l-.06-.13-.06-.18c0-.06,0-.12,0-.18v0a.15.15,0,0,1,0,.07m-.72-2.32-.18,0-.18.06-.18.06c-.14.06-.29.12-.42.19a3,3,0,0,0-.38.24.82.82,0,0,0-.26.27.71.71,0,0,0-.07.32v0a0,0,0,0,0,0,0v.13a.74.74,0,0,0,.16.32,1.28,1.28,0,0,0,.3.26,1,1,0,0,0,.37.14.92.92,0,0,0,.37,0l.08,0,.09,0,.08-.05.07,0,.14-.12a.83.83,0,0,0,.13-.18,2,2,0,0,0,.12-.26,1.26,1.26,0,0,0,0-.28v-.28a1.27,1.27,0,0,0,0-.28.19.19,0,0,0,0-.08v-.08a.21.21,0,0,0,0-.06.19.19,0,0,0,0-.08l0-.14a.83.83,0,0,0,0-.15v0l-.16.07"></path><path class="cls-1" d="M224.17,276s0,0,0,.05l0,.05,0,.07.05.1a.61.61,0,0,0,.05.12l.06.12.06.13a1.21,1.21,0,0,1,.05.14,0,0,0,0,1,0,0h0a2.81,2.81,0,0,1,.22-.47,3.55,3.55,0,0,1,.35-.44,2,2,0,0,1,.47-.39,4,4,0,0,1,.62-.27l.23-.06a1.15,1.15,0,0,1,.28-.06l.3-.05.31,0a3.27,3.27,0,0,1,.62.07,3.48,3.48,0,0,1,.62.21,1.28,1.28,0,0,1,.53.43,2.22,2.22,0,0,1,.37.72l1.53,4.74-2.49.8-1.3-4a1.79,1.79,0,0,0-.25-.5,1.08,1.08,0,0,0-.37-.31,1,1,0,0,0-.4-.12,1,1,0,0,0-.38,0h0a1.15,1.15,0,0,0-.35.22,1.23,1.23,0,0,0-.26.33,1.16,1.16,0,0,0-.12.44,1.49,1.49,0,0,0,.08.5l1.33,4.12-2.59.84-1.71-5.29s0-.07,0-.12l0-.13a.37.37,0,0,1,0-.11l-.05-.14-.1-.24-.09-.22-.08-.17a.53.53,0,0,0-.06-.13.52.52,0,0,1-.06-.13v0Z"></path><polygon class="cls-1" points="236.28 268.18 240.58 273.46 239.01 266.84 242.92 264.91 247.34 273.89 245.2 274.95 241.5 267.43 243.15 275.95 240.81 277.11 235.15 270.56 238.85 278.08 236.7 279.13 232.28 270.15 236.28 268.18"></polygon><path class="cls-1" d="M252.24,269.7s0,0,0,0V270s0,.07,0,.11a2.24,2.24,0,0,1-.1.39,1.64,1.64,0,0,1-.22.41,1.61,1.61,0,0,1-.33.42,3.23,3.23,0,0,1-.49.39,4.73,4.73,0,0,1-1,.54,1.84,1.84,0,0,1-.83.12,2.7,2.7,0,0,1-.68-.19,2.25,2.25,0,0,1-.53-.36l-.14-.14a.64.64,0,0,1-.13-.15.76.76,0,0,1-.11-.14l-.1-.16a2,2,0,0,1-.33-1.25,2.14,2.14,0,0,1,.53-1.2,9.85,9.85,0,0,1,1.1-1.15,13.5,13.5,0,0,1,1.36-1,4.56,4.56,0,0,0-.31-.42,3.66,3.66,0,0,0-.31-.35.52.52,0,0,0-.36-.14.83.83,0,0,0-.43.15,1,1,0,0,0-.27.26.63.63,0,0,0-.12.28.93.93,0,0,0,0,.29c0,.08.05.17.08.26l0,0,0,0s0,0,0,0l0,0a.43.43,0,0,0,0,.07l0,.07-2.2,1.42a2,2,0,0,1-.36-1,1.77,1.77,0,0,1,.25-1,4.25,4.25,0,0,1,.71-1,6.68,6.68,0,0,1,1.06-.85,5.7,5.7,0,0,1,1.09-.57,4.46,4.46,0,0,1,1.09-.27,1.83,1.83,0,0,1,.95.11,1.49,1.49,0,0,1,.68.57l2,3c.07.1.13.2.21.3l.23.32a4.2,4.2,0,0,0,.29.32c.11.1.22.2.35.3l-2.18,1.44h0v0l-.06,0-.07-.07-.08-.08-.1-.11a1,1,0,0,1-.11-.15c0-.05-.07-.1-.1-.16l0,0a.2.2,0,0,1,0,.07m-1.45-1.94-.15.1-.16.11-.14.12-.34.32c-.1.12-.19.23-.28.36a.91.91,0,0,0-.15.34.59.59,0,0,0,.05.32v.06h0v0s0,0,0,0l0,0v0s0,0,0,0a1,1,0,0,0,.25.25,1.19,1.19,0,0,0,.77.15.85.85,0,0,0,.34-.14l.07-.05a.19.19,0,0,0,.07-.06l.06-.07.05-.07a.86.86,0,0,0,.1-.16q0-.09.06-.21a1,1,0,0,0,0-.29.86.86,0,0,0-.05-.27,2.76,2.76,0,0,0-.08-.27,2.06,2.06,0,0,0-.12-.26l0-.06,0-.07,0-.06a.43.43,0,0,0,0-.07l-.08-.12-.08-.12,0,0a.49.49,0,0,1-.12.13"></path><path class="cls-1" d="M253.85,260.84l0,0,.05.05.09.08.1.09.13.12.15.15.07.09.08.09a.27.27,0,0,1,.07.08l.08.1a1.89,1.89,0,0,1-.17-.74,1.52,1.52,0,0,1,.14-.67,2.83,2.83,0,0,1,.4-.62,4.77,4.77,0,0,1,.6-.58l1.42,1.77-.05.05s0,0-.05,0l-.06,0-.05,0-.06.05-.06,0-.06,0,0,0a2.43,2.43,0,0,0-.49.53,2.29,2.29,0,0,0-.27.62,1.3,1.3,0,0,0,0,.65,2.16,2.16,0,0,0,.36.66l2,2.52-2.12,1.7-3.35-4.15a3.11,3.11,0,0,0-.2-.25l-.14-.17,0-.06,0,0,0,0,0-.05a.28.28,0,0,1-.09-.07l-.1-.09-.15-.16-.25-.25,0,0Z"></path><polygon class="cls-1" points="255.81 255.04 260.08 259.23 259.49 255.46 261.56 253.36 262.06 257.2 266.83 258.08 264.63 260.33 260.31 259.45 262.95 262.04 261.05 263.99 253.9 256.98 255.81 255.04"></polygon><path class="cls-1" d="M269.8,249.89a3,3,0,0,1,.7.92,2.51,2.51,0,0,1,.21,1.06,3.59,3.59,0,0,1-.24,1.16,6,6,0,0,1-.66,1.24,6.1,6.1,0,0,1-1.15,1.28,2.69,2.69,0,0,1-2.57.51,5.3,5.3,0,0,1-1.48-.75,4.42,4.42,0,0,1-1.12-1.07A3.41,3.41,0,0,1,263,253a3.27,3.27,0,0,1,.06-1.39,4.36,4.36,0,0,1,.67-1.4,4.6,4.6,0,0,1,1.32-1.35,2.47,2.47,0,0,1,1.45-.4,4.89,4.89,0,0,1,1.49.31,6.67,6.67,0,0,1,1.49.78l-2.87,4.1.13.09.14.1.16.09.18.08a1.14,1.14,0,0,0,.32.07,1.37,1.37,0,0,0,.35,0,.78.78,0,0,0,.35-.15,1.66,1.66,0,0,0,.33-.36l0,0,0,0,0,0v0l0,0v0a1.38,1.38,0,0,0,.12-.34,1.51,1.51,0,0,0,0-.37,1.07,1.07,0,0,0-.1-.36.92.92,0,0,0-.27-.29h0Zm-3.64.63a1.15,1.15,0,0,0-.52,0,1.05,1.05,0,0,0-.46.16,1,1,0,0,0-.33.31.92.92,0,0,0-.17.44,1.25,1.25,0,0,0,0,.5,1.35,1.35,0,0,0,.22.47,2,2,0,0,0,.39.37l1.34-2a1.72,1.72,0,0,0-.51-.25"></path><path class="cls-1" d="M265.81,242.52l1.88.88.64-1.38,1.48.68-.64,1.38,2.67,1.24a2.1,2.1,0,0,0,.47.17.66.66,0,0,0,.32,0,.57.57,0,0,0,.23-.15,1.48,1.48,0,0,0,.17-.28.61.61,0,0,0,.05-.12.33.33,0,0,0,.05-.12s0-.08.05-.13,0-.09,0-.14l0,0a0,0,0,0,0,0,0l0,0v-.08s0,0,0,0v0l1.46.68c-.05.14-.09.28-.14.43s-.09.29-.14.43l-.15.41-.18.38a4.22,4.22,0,0,1-.49.84,3.43,3.43,0,0,1-.59.61,1.22,1.22,0,0,1-.74.25,2.12,2.12,0,0,1-.92-.22L268,246.55l-.55,1.18L266,247l.55-1.17-1-.46Z"></path><polygon class="cls-1" points="305.52 333.11 303.99 333.11 303.99 332.56 307.72 332.56 307.72 333.11 306.18 333.11 306.18 337.61 305.52 337.61 305.52 333.11"></polygon><path class="cls-1" d="M312.54,335.39c0-.7-.08-1.55-.07-2.18h0c-.17.59-.38,1.22-.63,1.92l-.89,2.45h-.5l-.81-2.41c-.24-.71-.45-1.36-.59-2h0c0,.63-.05,1.48-.09,2.23l-.14,2.17h-.62l.35-5.05h.84l.86,2.44c.21.62.38,1.18.51,1.7h0c.13-.51.31-1.06.53-1.7l.9-2.44H313l.32,5.05h-.64Z"></path><path class="cls-1" d="M308.87,342.81a7.41,7.41,0,1,1,7.4-7.4,7.41,7.41,0,0,1-7.4,7.4m0-14.12a6.72,6.72,0,1,0,6.71,6.72,6.73,6.73,0,0,0-6.71-6.72"></path></g></g></svg>